<svg xmlns="http://www.w3.org/2000/svg" width="24" height="24" viewBox="0 0 24 24">
    <path fill="#C3C2CC" fill-rule="evenodd" d="M14.4 0C19.702 0 24 4.298 24 9.6v4.8c0 5.302-4.298 9.6-9.6 9.6H9.6C4.298 24 0 19.702 0 14.4V9.6C0 4.298 4.298 0 9.6 0h4.8zm0 2.4H9.6c-3.886 0-7.053 3.079-7.195 6.93L2.4 9.6v4.8c0 3.886 3.079 7.053 6.93 7.195l.27.005h4.8c3.886 0 7.053-3.079 7.195-6.93l.005-.27V9.6c0-3.886-3.079-7.053-6.93-7.195L14.4 2.4zm-2.43 3.604l.175.01c.538.064 1.001.53 1.055 1.08l.005.116v3.585l3.648.001c.588.042 1.101.53 1.145 1.116.046.654-.51 1.276-1.203 1.293h-3.59V16.8c-.012.493-.327.956-.778 1.127-.66.25-1.488-.202-1.615-.93l-.017-.168v-3.624h-3.59c-.613-.015-1.16-.522-1.203-1.117-.045-.636.476-1.26 1.145-1.292h3.648V7.167l.005-.075c.053-.539.508-1.014 1.055-1.08l.116-.009z"/>
</svg>
