<svg xmlns="http://www.w3.org/2000/svg" width="20" height="20" viewBox="0 0 20 20">
    <path fill="#1E1D29" fill-rule="evenodd" d="M17.038 8.817a1 1 0 00-.33-.743l-6.02-5.416a1 1 0 00-1.338 0L3.33 8.074a1 1 0 00-.33.743v8.709a.5.5 0 00.5.5h2.04a.5.5 0 00.5-.5v-4.224c0-.711.46-1.288 1.31-1.288h5.286c.85 0 1.353.577 1.353 1.288v4.224a.5.5 0 00.5.5h2.05a.5.5 0 00.5-.5V8.817zM10 0c.438 0 .86.162 1.186.454L18.17 6.73c.25.224.455.494.604.795.148.3.225.63.225.963v10.224c0 .711-.69 1.288-1.538 1.288h-3.91c-.85 0-1.539-.577-1.539-1.288v-4.21a.5.5 0 00-.5-.5H8.515a.5.5 0 00-.5.5v4.21c0 .711-.689 1.288-1.538 1.288H2.538C1.688 20 1 19.423 1 18.712V8.488c0-.334.077-.664.225-.963.15-.301.354-.57.604-.795L8.814.454A1.774 1.774 0 0110 0z"/>
</svg>
