<svg xmlns="http://www.w3.org/2000/svg" width="20" height="20" viewBox="0 0 20 20">
    <path fill="#1E1D29" fill-rule="evenodd" d="M10 1l.101.003a.841.841 0 0 1 .74.634L12.682 9h2.776L17.3 1.637a.84.84 0 0 1 .003-.014l.004-.014a.84.84 0 0 1 1.04-.576.901.901 0 0 1 .626 1.085L17.25 9H19a1 1 0 0 1 0 2h-2.248l-1.84 7.363a.84.84 0 0 1-.004.014l-.004.014a.84.84 0 0 1-.732.606L14.07 19a.841.841 0 0 1-.842-.637L11.39 11H8.611l-1.84 7.363a.84.84 0 0 1-.004.014l-.004.014a.84.84 0 0 1-.732.606L5.93 19a.841.841 0 0 1-.842-.637L3.247 11H1a1 1 0 0 1 0-2h1.748l-1.72-6.882a.901.901 0 0 1 .625-1.085.84.84 0 0 1 1.047.604L4.541 9h2.776l1.842-7.363a.84.84 0 0 1 .003-.014l.004-.014a.841.841 0 0 1 .733-.606l.1-.003H10zm4.958 10h-1.776l.888 3.554.888-3.554zm-8.141 0H5.041l.888 3.554L6.817 11zM10 5.443L9.111 9h1.778L10 5.443z"/>
</svg>
