<svg xmlns="http://www.w3.org/2000/svg" width="33" height="32" viewBox="0 0 33 32">
    <path fill="#333" fill-rule="nonzero" d="M2.688 1.6a.542.542 0 0 0-.55.533V6.4c0 .295.246.533.55.533H30.28a.542.542 0 0 0 .552-.533V2.133a.542.542 0 0 0-.552-.533H2.69zm0-1.6H30.28c1.218 0 2.205.955 2.205 2.133V6.4c0 1.178-.987 2.133-2.205 2.133H2.69C1.47 8.533.483 7.578.483 6.4V2.133C.484.955 1.47 0 2.688 0zm0 11.733H30.28c1.218 0 2.205.955 2.205 2.134v4.266c0 1.179-.987 2.134-2.205 2.134H2.69c-1.218 0-2.205-.955-2.205-2.134v-4.266c0-1.179.987-2.134 2.204-2.134zm0 1.6a.542.542 0 0 0-.55.534v4.266c0 .295.246.534.55.534H30.28a.542.542 0 0 0 .552-.534v-4.266a.542.542 0 0 0-.552-.534H2.69zm0 10.134H30.28c1.218 0 2.205.955 2.205 2.133v4.267c0 1.178-.987 2.133-2.205 2.133H2.69C1.47 32 .483 31.045.483 29.867V25.6c0-1.178.987-2.133 2.204-2.133zm0 1.6a.542.542 0 0 0-.55.533v4.267c0 .294.246.533.55.533H30.28a.542.542 0 0 0 .552-.533V25.6a.542.542 0 0 0-.552-.533H2.69z"/>
</svg>
