<svg xmlns="http://www.w3.org/2000/svg" width="24" height="24" viewBox="0 0 24 24">
    <path fill="#C3C2CC" fill-rule="evenodd" d="M21.353 24H2.647c-.728 0-1.42-.317-1.897-.867A3.08 3.08 0 0 1 0 21.118V6.484c0-.74.266-1.454.75-2.014a2.507 2.507 0 0 1 1.897-.867h1.666a2 2 0 0 0 1.537-.72L7.65.72A2 2 0 0 1 9.187 0h5.626a2 2 0 0 1 1.537.72l1.8 2.163a2 2 0 0 0 1.537.72h1.666c.728 0 1.42.316 1.897.867.484.56.75 1.275.75 2.014v14.634a3.08 3.08 0 0 1-.75 2.015 2.507 2.507 0 0 1-1.897.867zM12 7.2a6 6 0 1 1 0 12 6 6 0 0 1 0-12zm0 9.6c1.985 0 3.6-1.615 3.6-3.6S13.985 9.6 12 9.6a3.604 3.604 0 0 0-3.6 3.6c0 1.985 1.615 3.6 3.6 3.6z"/>
</svg>
