<?xml version="1.0" encoding="UTF-8"?>
<svg width="44px" height="30px" viewBox="0 0 44 30" version="1.1" xmlns="http://www.w3.org/2000/svg" xmlns:xlink="http://www.w3.org/1999/xlink">
    <!-- Generator: sketchtool 51.2 (57519) - http://www.bohemiancoding.com/sketch -->
    <title>B15B5214-3AE9-48D2-A1EF-A5179416B215</title>
    <desc>Created with sketchtool.</desc>
    <defs></defs>
    <g id="Page-1" stroke="none" stroke-width="1" fill="none" fill-rule="evenodd">
        <g id="Artboard" transform="translate(-139.000000, -957.000000)" fill="#CCCCCC">
            <g id="Group-3" transform="translate(0.000000, 748.000000)">
                <g id="Group-16" transform="translate(40.000000, 205.000000)">
                    <g id="icon_detail_view_c" transform="translate(99.000000, 4.000000)">
                        <g id="Shape">
                            <g>
                                <path d="M22,0 C12,0 3.4,6.2 0,15 C3.4,23.8 12,30 22,30 C32,30 40.6,23.8 44,15 C40.6,6.2 32,0 22,0 L22,0 Z M22,25 C16.4,25 12,20.6 12,15 C12,9.4 16.4,5 22,5 C27.6,5 32,9.4 32,15 C32,20.6 27.6,25 22,25 L22,25 Z M22,10 C19.1666667,10 17,12.1666667 17,15 C17,17.8333333 19.1666667,20 22,20 C24.8333333,20 27,17.8333333 27,15 C27,12.1666667 24.8333333,10 22,10 L22,10 Z"></path>
                            </g>
                        </g>
                    </g>
                </g>
            </g>
        </g>
    </g>
</svg>