<svg xmlns="http://www.w3.org/2000/svg" width="16" height="16" viewBox="0 0 16 16">
    <path fill="#DCDBE4" fill-rule="evenodd" d="M8.395 13.085a.8.8 0 0 0-.79-.001L4.12 15.061c-.71.405-1.58-.194-1.393-.951l.907-3.664a.8.8 0 0 0-.271-.812L.324 7.154c-.626-.51-.29-1.479.533-1.54l4.045-.324a.8.8 0 0 0 .665-.468L7.14 1.335c.318-.713 1.402-.713 1.72 0l1.573 3.495a.8.8 0 0 0 .666.47l4.044.323c.822.061 1.159 1.03.533 1.54l-3.039 2.48a.8.8 0 0 0-.27.812l.906 3.664c.187.757-.683 1.355-1.393.95l-3.485-1.984z"/>
</svg>
