<?xml version="1.0" encoding="UTF-8"?>
<svg width="32px" height="32px" viewBox="0 0 32 32" version="1.1" xmlns="http://www.w3.org/2000/svg" xmlns:xlink="http://www.w3.org/1999/xlink">
    <!-- Generator: Sketch 49.3 (51167) - http://www.bohemiancoding.com/sketch -->
    <title>Combined Shape</title>
    <desc>Created with Sketch.</desc>
    <defs></defs>
    <g id="Page-1" stroke="none" stroke-width="1" fill="none" fill-rule="evenodd">
        <g id="추천탭_iOS_guide" transform="translate(-1238.000000, -4279.000000)" fill="#333333" fill-rule="nonzero">
            <g id="Group-Copy-5" transform="translate(1028.000000, 4114.000000)">
                <g id="2/3" transform="translate(109.000000, 164.000000)">
                    <g id="Group-16" transform="translate(101.000000, 1.000000)">
                        <path d="M2.13333333,1.6 C1.83878147,1.6 1.6,1.83878147 1.6,2.13333333 L1.6,7.46666667 C1.6,7.76121853 1.83878147,8 2.13333333,8 L7.46666667,8 C7.76121853,8 8,7.76121853 8,7.46666667 L8,2.13333333 C8,1.83878147 7.76121853,1.6 7.46666667,1.6 L2.13333333,1.6 Z M2.13333333,0 L7.46666667,0 C8.64487413,-2.164332e-16 9.6,0.955125867 9.6,2.13333333 L9.6,7.46666667 C9.6,8.64487413 8.64487413,9.6 7.46666667,9.6 L2.13333333,9.6 C0.955125867,9.6 1.442888e-16,8.64487413 0,7.46666667 L0,2.13333333 C-1.442888e-16,0.955125867 0.955125867,2.164332e-16 2.13333333,0 Z M13.3333333,0 L18.6666667,0 C19.8448741,-2.164332e-16 20.8,0.955125867 20.8,2.13333333 L20.8,7.46666667 C20.8,8.64487413 19.8448741,9.6 18.6666667,9.6 L13.3333333,9.6 C12.1551259,9.6 11.2,8.64487413 11.2,7.46666667 L11.2,2.13333333 C11.2,0.955125867 12.1551259,2.164332e-16 13.3333333,0 Z M13.3333333,1.6 C13.0387815,1.6 12.8,1.83878147 12.8,2.13333333 L12.8,7.46666667 C12.8,7.76121853 13.0387815,8 13.3333333,8 L18.6666667,8 C18.9612185,8 19.2,7.76121853 19.2,7.46666667 L19.2,2.13333333 C19.2,1.83878147 18.9612185,1.6 18.6666667,1.6 L13.3333333,1.6 Z M24.5333333,0 L29.8666667,0 C31.0448741,-2.164332e-16 32,0.955125867 32,2.13333333 L32,7.46666667 C32,8.64487413 31.0448741,9.6 29.8666667,9.6 L24.5333333,9.6 C23.3551259,9.6 22.4,8.64487413 22.4,7.46666667 L22.4,2.13333333 C22.4,0.955125867 23.3551259,2.164332e-16 24.5333333,0 Z M24.5333333,1.6 C24.2387815,1.6 24,1.83878147 24,2.13333333 L24,7.46666667 C24,7.76121853 24.2387815,8 24.5333333,8 L29.8666667,8 C30.1612185,8 30.4,7.76121853 30.4,7.46666667 L30.4,2.13333333 C30.4,1.83878147 30.1612185,1.6 29.8666667,1.6 L24.5333333,1.6 Z M2.13333333,11.2 L7.46666667,11.2 C8.64487413,11.2 9.6,12.1551259 9.6,13.3333333 L9.6,18.6666667 C9.6,19.8448741 8.64487413,20.8 7.46666667,20.8 L2.13333333,20.8 C0.955125867,20.8 1.442888e-16,19.8448741 0,18.6666667 L0,13.3333333 C-1.442888e-16,12.1551259 0.955125867,11.2 2.13333333,11.2 Z M2.13333333,12.8 C1.83878147,12.8 1.6,13.0387815 1.6,13.3333333 L1.6,18.6666667 C1.6,18.9612185 1.83878147,19.2 2.13333333,19.2 L7.46666667,19.2 C7.76121853,19.2 8,18.9612185 8,18.6666667 L8,13.3333333 C8,13.0387815 7.76121853,12.8 7.46666667,12.8 L2.13333333,12.8 Z M13.3333333,11.2 L18.6666667,11.2 C19.8448741,11.2 20.8,12.1551259 20.8,13.3333333 L20.8,18.6666667 C20.8,19.8448741 19.8448741,20.8 18.6666667,20.8 L13.3333333,20.8 C12.1551259,20.8 11.2,19.8448741 11.2,18.6666667 L11.2,13.3333333 C11.2,12.1551259 12.1551259,11.2 13.3333333,11.2 Z M13.3333333,12.8 C13.0387815,12.8 12.8,13.0387815 12.8,13.3333333 L12.8,18.6666667 C12.8,18.9612185 13.0387815,19.2 13.3333333,19.2 L18.6666667,19.2 C18.9612185,19.2 19.2,18.9612185 19.2,18.6666667 L19.2,13.3333333 C19.2,13.0387815 18.9612185,12.8 18.6666667,12.8 L13.3333333,12.8 Z M24.5333333,11.2 L29.8666667,11.2 C31.0448741,11.2 32,12.1551259 32,13.3333333 L32,18.6666667 C32,19.8448741 31.0448741,20.8 29.8666667,20.8 L24.5333333,20.8 C23.3551259,20.8 22.4,19.8448741 22.4,18.6666667 L22.4,13.3333333 C22.4,12.1551259 23.3551259,11.2 24.5333333,11.2 Z M24.5333333,12.8 C24.2387815,12.8 24,13.0387815 24,13.3333333 L24,18.6666667 C24,18.9612185 24.2387815,19.2 24.5333333,19.2 L29.8666667,19.2 C30.1612185,19.2 30.4,18.9612185 30.4,18.6666667 L30.4,13.3333333 C30.4,13.0387815 30.1612185,12.8 29.8666667,12.8 L24.5333333,12.8 Z M2.13333333,22.4 L7.46666667,22.4 C8.64487413,22.4 9.6,23.3551259 9.6,24.5333333 L9.6,29.8666667 C9.6,31.0448741 8.64487413,32 7.46666667,32 L2.13333333,32 C0.955125867,32 1.442888e-16,31.0448741 0,29.8666667 L0,24.5333333 C-1.442888e-16,23.3551259 0.955125867,22.4 2.13333333,22.4 Z M2.13333333,24 C1.83878147,24 1.6,24.2387815 1.6,24.5333333 L1.6,29.8666667 C1.6,30.1612185 1.83878147,30.4 2.13333333,30.4 L7.46666667,30.4 C7.76121853,30.4 8,30.1612185 8,29.8666667 L8,24.5333333 C8,24.2387815 7.76121853,24 7.46666667,24 L2.13333333,24 Z M13.3333333,22.4 L18.6666667,22.4 C19.8448741,22.4 20.8,23.3551259 20.8,24.5333333 L20.8,29.8666667 C20.8,31.0448741 19.8448741,32 18.6666667,32 L13.3333333,32 C12.1551259,32 11.2,31.0448741 11.2,29.8666667 L11.2,24.5333333 C11.2,23.3551259 12.1551259,22.4 13.3333333,22.4 Z M13.3333333,24 C13.0387815,24 12.8,24.2387815 12.8,24.5333333 L12.8,29.8666667 C12.8,30.1612185 13.0387815,30.4 13.3333333,30.4 L18.6666667,30.4 C18.9612185,30.4 19.2,30.1612185 19.2,29.8666667 L19.2,24.5333333 C19.2,24.2387815 18.9612185,24 18.6666667,24 L13.3333333,24 Z M24.5333333,22.4 L29.8666667,22.4 C31.0448741,22.4 32,23.3551259 32,24.5333333 L32,29.8666667 C32,31.0448741 31.0448741,32 29.8666667,32 L24.5333333,32 C23.3551259,32 22.4,31.0448741 22.4,29.8666667 L22.4,24.5333333 C22.4,23.3551259 23.3551259,22.4 24.5333333,22.4 Z M24.5333333,24 C24.2387815,24 24,24.2387815 24,24.5333333 L24,29.8666667 C24,30.1612185 24.2387815,30.4 24.5333333,30.4 L29.8666667,30.4 C30.1612185,30.4 30.4,30.1612185 30.4,29.8666667 L30.4,24.5333333 C30.4,24.2387815 30.1612185,24 29.8666667,24 L24.5333333,24 Z" id="Combined-Shape"></path>
                    </g>
                </g>
            </g>
        </g>
    </g>
</svg>