<?xml version="1.0" encoding="UTF-8"?>
<svg width="33px" height="32px" viewBox="0 0 33 32" version="1.1" xmlns="http://www.w3.org/2000/svg" xmlns:xlink="http://www.w3.org/1999/xlink">
    <!-- Generator: Sketch 49.3 (51167) - http://www.bohemiancoding.com/sketch -->
    <title>Combined Shape</title>
    <desc>Created with Sketch.</desc>
    <defs></defs>
    <g id="Page-1" stroke="none" stroke-width="1" fill="none" fill-rule="evenodd">
        <g id="추천탭_iOS_guide" transform="translate(-1188.000000, -4278.000000)" fill="#333333" fill-rule="nonzero">
            <g id="Group-Copy-5" transform="translate(1028.000000, 4114.000000)">
                <g id="2/3" transform="translate(109.000000, 164.000000)">
                    <g id="Group-15" transform="translate(51.000000, 0.000000)">
                        <path d="M2.66949153,1.6 C2.36994725,1.6 2.12711864,1.83878147 2.12711864,2.13333333 L2.12711864,12.8 C2.12711864,13.0945519 2.36994725,13.3333333 2.66949153,13.3333333 L13.5169492,13.3333333 C13.8164934,13.3333333 14.059322,13.0945519 14.059322,12.8 L14.059322,2.13333333 C14.059322,1.83878147 13.8164934,1.6 13.5169492,1.6 L2.66949153,1.6 Z M2.66949153,0 L13.5169492,0 C14.7151262,-2.164332e-16 15.6864407,0.955125867 15.6864407,2.13333333 L15.6864407,12.8 C15.6864407,13.9782075 14.7151262,14.9333333 13.5169492,14.9333333 L2.66949153,14.9333333 C1.47131444,14.9333333 0.5,13.9782075 0.5,12.8 L0.5,2.13333333 C0.5,0.955125867 1.47131444,2.164332e-16 2.66949153,0 Z M19.4830508,0 L30.3305085,0 C31.5286856,-2.164332e-16 32.5,0.955125867 32.5,2.13333333 L32.5,12.8 C32.5,13.9782075 31.5286856,14.9333333 30.3305085,14.9333333 L19.4830508,14.9333333 C18.2848738,14.9333333 17.3135593,13.9782075 17.3135593,12.8 L17.3135593,2.13333333 C17.3135593,0.955125867 18.2848738,2.164332e-16 19.4830508,0 Z M19.4830508,1.6 C19.1835066,1.6 18.940678,1.83878147 18.940678,2.13333333 L18.940678,12.8 C18.940678,13.0945519 19.1835066,13.3333333 19.4830508,13.3333333 L30.3305085,13.3333333 C30.6300527,13.3333333 30.8728814,13.0945519 30.8728814,12.8 L30.8728814,2.13333333 C30.8728814,1.83878147 30.6300527,1.6 30.3305085,1.6 L19.4830508,1.6 Z M2.66949153,17.0666667 L13.5169492,17.0666667 C14.7151262,17.0666667 15.6864407,18.0217925 15.6864407,19.2 L15.6864407,29.8666667 C15.6864407,31.0448741 14.7151262,32 13.5169492,32 L2.66949153,32 C1.47131444,32 0.5,31.0448741 0.5,29.8666667 L0.5,19.2 C0.5,18.0217925 1.47131444,17.0666667 2.66949153,17.0666667 Z M2.66949153,18.6666667 C2.36994725,18.6666667 2.12711864,18.9054481 2.12711864,19.2 L2.12711864,29.8666667 C2.12711864,30.1612185 2.36994725,30.4 2.66949153,30.4 L13.5169492,30.4 C13.8164934,30.4 14.059322,30.1612185 14.059322,29.8666667 L14.059322,19.2 C14.059322,18.9054481 13.8164934,18.6666667 13.5169492,18.6666667 L2.66949153,18.6666667 Z M19.4830508,17.0666667 L30.3305085,17.0666667 C31.5286856,17.0666667 32.5,18.0217925 32.5,19.2 L32.5,29.8666667 C32.5,31.0448741 31.5286856,32 30.3305085,32 L19.4830508,32 C18.2848738,32 17.3135593,31.0448741 17.3135593,29.8666667 L17.3135593,19.2 C17.3135593,18.0217925 18.2848738,17.0666667 19.4830508,17.0666667 Z M19.4830508,18.6666667 C19.1835066,18.6666667 18.940678,18.9054481 18.940678,19.2 L18.940678,29.8666667 C18.940678,30.1612185 19.1835066,30.4 19.4830508,30.4 L30.3305085,30.4 C30.6300527,30.4 30.8728814,30.1612185 30.8728814,29.8666667 L30.8728814,19.2 C30.8728814,18.9054481 30.6300527,18.6666667 30.3305085,18.6666667 L19.4830508,18.6666667 Z" id="Combined-Shape"></path>
                    </g>
                </g>
            </g>
        </g>
    </g>
</svg>